<svg id="Layer_1" data-name="Layer 1" xmlns="http://www.w3.org/2000/svg" viewBox="0 0 1000 1000"><defs><style>.cls-1{fill:#003594;}.cls-2{fill:#ffb81c;}</style></defs><title>Pitt CS Wiki Logo</title><path class="cls-1" d="M500,0A500,500,0,1,0,1000,500,500,500,0,0,0,500,0Zm0,900A400,400,0,1,1,900,500,400,400,0,0,1,500,900Z"/><path class="cls-2" d="M500,100A400,400,0,1,0,900,500,400,400,0,0,0,500,100Zm0,700A300,300,0,1,1,800,500,300,300,0,0,1,500,800Z"/><path class="cls-1" d="M500,200A300,300,0,1,0,800,500,300,300,0,0,0,500,200Zm0,500A200,200,0,1,1,700,500,200,200,0,0,1,500,700Z"/><path class="cls-2" d="M500,300A200,200,0,1,0,700,500,200,200,0,0,0,500,300Zm0,300A100,100,0,1,1,600,500,100,100,0,0,1,500,600Z"/><circle class="cls-1" cx="500" cy="500" r="100"/></svg>