<svg xmlns="http://www.w3.org/2000/svg" viewBox="0 0 100 100"><path d="M50,10.5c-2.2,0-4,1.8-4,4v10c0,2.2,1.8,4,4,4s4-1.8,4-4v-10C54,12.3,52.2,10.5,50,10.5z"/><path d="M50,32.5c-2.2,0-4,1.8-4,4v10c0,2.2,1.8,4,4,4s4-1.8,4-4v-10C54,34.3,52.2,32.5,50,32.5z"/><path d="M50,54.5c-2.2,0-4,1.8-4,4v10c0,2.2,1.8,4,4,4s4-1.8,4-4v-10C54,56.3,52.2,54.5,50,54.5z"/><path d="M50,76.5c-2.2,0-4,1.8-4,4v10c0,2.2,1.8,4,4,4s4-1.8,4-4v-10C54,78.3,52.2,76.5,50,76.5z"/><path d="M72.5,21.5c-1.1,0-2.1,0.4-2.8,1.2l-7.1,7.1c-1.6,1.6-1.6,4.1,0,5.7c0.8,0.8,1.8,1.2,2.8,1.2s2.1-0.4,2.8-1.2l7.1-7.1c1.6-1.6,1.6-4.1,0-5.7C74.6,21.9,73.6,21.5,72.5,21.5z"/><path d="M27.5,21.5c-1.1,0-2.1,0.4-2.8,1.2c-1.6,1.6-1.6,4.1,0,5.7l7.1,7.1c0.8,0.8,1.8,1.2,2.8,1.2s2.1-0.4,2.8-1.2c1.6-1.6,1.6-4.1,0-5.7l-7.1-7.1C29.6,21.9,28.6,21.5,27.5,21.5z"/><path d="M72.5,43.5c-1.1,0-2.1,0.4-2.8,1.2l-7.1,7.1c-1.6,1.6-1.6,4.1,0,5.7c0.8,0.8,1.8,1.2,2.8,1.2s2.1-0.4,2.8-1.2l7.1-7.1c1.6-1.6,1.6-4.1,0-5.7C74.6,43.9,73.6,43.5,72.5,43.5z"/><path d="M27.5,43.5c-1.1,0-2.1,0.4-2.8,1.2c-1.6,1.6-1.6,4.1,0,5.7l7.1,7.1c0.8,0.8,1.8,1.2,2.8,1.2s2.1-0.4,2.8-1.2c1.6-1.6,1.6-4.1,0-5.7l-7.1-7.1C29.6,43.9,28.6,43.5,27.5,43.5z"/><path d="M72.5,65.5c-1.1,0-2.1,0.4-2.8,1.2l-7.1,7.1c-1.6,1.6-1.6,4.1,0,5.7c0.8,0.8,1.8,1.2,2.8,1.2s2.1-0.4,2.8-1.2l7.1-7.1c1.6-1.6,1.6-4.1,0-5.7C74.6,65.9,73.6,65.5,72.5,65.5z"/><path d="M27.5,65.5c-1.1,0-2.1,0.4-2.8,1.2c-1.6,1.6-1.6,4.1,0,5.7l7.1,7.1c0.8,0.8,1.8,1.2,2.8,1.2s2.1-0.4,2.8-1.2c1.6-1.6,1.6-4.1,0-5.7l-7.1-7.1C29.6,65.9,28.6,65.5,27.5,65.5z"/></svg>