<svg xmlns="http://www.w3.org/2000/svg" viewBox="0 0 100 100"><path d="M89.5,10.5h-79c-2.2,0-4,1.8-4,4v71c0,2.2,1.8,4,4,4h79c2.2,0,4-1.8,4-4v-71C93.5,12.3,91.7,10.5,89.5,10.5z M89.5,85.5h-79v-71h79V85.5z"/><path d="M20.5,25.5h59c0.6,0,1-0.4,1-1s-0.4-1-1-1h-59c-0.6,0-1,0.4-1,1S19.9,25.5,20.5,25.5z"/><path d="M20.5,35.5h59c0.6,0,1-0.4,1-1s-0.4-1-1-1h-59c-0.6,0-1,0.4-1,1S19.9,35.5,20.5,35.5z"/><path d="M20.5,45.5h59c0.6,0,1-0.4,1-1s-0.4-1-1-1h-59c-0.6,0-1,0.4-1,1S19.9,45.5,20.5,45.5z"/><path d="M20.5,55.5h59c0.6,0,1-0.4,1-1s-0.4-1-1-1h-59c-0.6,0-1,0.4-1,1S19.9,55.5,20.5,55.5z"/><path d="M20.5,65.5h59c0.6,0,1-0.4,1-1s-0.4-1-1-1h-59c-0.6,0-1,0.4-1,1S19.9,65.5,20.5,65.5z"/></svg>